<svg width="16" height="17" viewBox="0 0 16 17" fill="none" xmlns="http://www.w3.org/2000/svg">
<path fill-rule="evenodd" clip-rule="evenodd" d="M15.5 8.33337C15.5 9.31829 15.306 10.2936 14.9291 11.2035C14.5522 12.1134 13.9997 12.9402 13.3033 13.6367C12.6069 14.3331 11.7801 14.8856 10.8701 15.2625C9.96018 15.6394 8.98491 15.8334 8 15.8334C7.01509 15.8334 6.03982 15.6394 5.12987 15.2625C4.21993 14.8856 3.39314 14.3331 2.6967 13.6367C2.00026 12.9402 1.44781 12.1134 1.0709 11.2035C0.693993 10.2936 0.5 9.31829 0.5 8.33337C0.5 6.34425 1.29018 4.4366 2.6967 3.03007C4.10322 1.62355 6.01088 0.833374 8 0.833374C9.98912 0.833374 11.8968 1.62355 13.3033 3.03007C14.7098 4.4366 15.5 6.34425 15.5 8.33337ZM10.854 5.47937C10.9004 5.52589 10.9372 5.5811 10.9622 5.64184C10.9873 5.70259 11.0001 5.76767 11 5.83337V10.8334C11 10.966 10.9473 11.0932 10.8536 11.1869C10.7598 11.2807 10.6326 11.3334 10.5 11.3334C10.3674 11.3334 10.2402 11.2807 10.1464 11.1869C10.0527 11.0932 10 10.966 10 10.8334V7.04037L5.854 11.1874C5.76011 11.2813 5.63278 11.334 5.5 11.334C5.36722 11.334 5.23989 11.2813 5.146 11.1874C5.05211 11.0935 4.99937 10.9661 4.99937 10.8334C4.99937 10.7006 5.05211 10.5733 5.146 10.4794L9.293 6.33337H5.5C5.36739 6.33337 5.24021 6.2807 5.14645 6.18693C5.05268 6.09316 5 5.96598 5 5.83337C5 5.70077 5.05268 5.57359 5.14645 5.47982C5.24021 5.38605 5.36739 5.33337 5.5 5.33337H10.5C10.638 5.33337 10.763 5.38937 10.854 5.47937Z" fill="white"/>
</svg>
