<svg width="28" height="28" viewBox="0 0 28 28" fill="none" xmlns="http://www.w3.org/2000/svg">
<g clip-path="url(#clip0_140_638)">
<path d="M14 27.125C21.2487 27.125 27.125 21.2487 27.125 14C27.125 6.75126 21.2487 0.875 14 0.875C6.75126 0.875 0.875 6.75126 0.875 14C0.875 21.2487 6.75126 27.125 14 27.125Z" fill="#F0B90B"/>
<path d="M9.01271 7.55583L13.9442 4.68524L18.8757 7.55583L17.0627 8.6163L13.9442 6.80618L10.8258 8.6163L9.01271 7.55583ZM18.8757 11.1761L17.0627 10.1156L13.9442 11.9257L10.8258 10.1156L9.01271 11.1761V13.297L12.1312 15.1071V18.7273L13.9442 19.7878L15.7573 18.7273V15.1071L18.8757 13.297V11.1761ZM18.8757 16.9172V14.7963L17.0627 15.8567V17.9777L18.8757 16.9172ZM20.163 17.6668L17.0446 19.4769V21.5979L21.9761 18.7273V12.9862L20.163 14.0466V17.6668ZM18.35 9.36594L20.163 10.4264V12.5473L21.9761 11.4869V9.36594L20.163 8.30547L18.35 9.36594ZM12.1312 20.2449V22.3658L13.9442 23.4263L15.7573 22.3658V20.2449L13.9442 21.3053L12.1312 20.2449ZM9.01271 16.9172L10.8258 17.9777V15.8567L9.01271 14.7963V16.9172ZM12.1312 9.36594L13.9442 10.4264L15.7573 9.36594L13.9442 8.30547L12.1312 9.36594ZM7.72541 10.4264L9.53847 9.36594L7.72541 8.30547L5.91235 9.36594V11.4869L7.72541 12.5473V10.4264ZM7.72541 14.0466L5.91235 12.9862V18.7273L10.8439 21.5979V19.4769L7.72541 17.6668V14.0466Z" fill="white"/>
</g>
<defs>
<clipPath id="clip0_140_638">
<rect width="28" height="28" fill="white"/>
</clipPath>
</defs>
</svg>
