<svg width="13" height="12" viewBox="0 0 13 12" fill="none" xmlns="http://www.w3.org/2000/svg">
<g clip-path="url(#clip0_21_7691)">
<path d="M12.4785 6C12.4785 2.68629 9.79222 0 6.47852 0C3.16481 0 0.478516 2.68629 0.478516 6C0.478516 9.31371 3.16481 12 6.47852 12C9.79222 12 12.4785 9.31371 12.4785 6Z" fill="#F3BA2F"/>
<path d="M6.47867 2.16003L7.43017 3.13153L5.03467 5.52003L4.08317 4.57153L6.47867 2.16003ZM7.92317 3.60003L8.87417 4.57153L5.03417 8.40003L4.08317 7.45153L7.92317 3.60003ZM3.59017 5.04003L4.54167 6.01153L3.59017 6.96003L2.63867 6.01153L3.59017 5.04003ZM9.36717 5.04003L10.3187 6.01153L6.47867 9.84003L5.52717 8.89153L9.36717 5.04003Z" fill="white" stroke="#F0B90B" stroke-width="0.5"/>
</g>
<defs>
<clipPath id="clip0_21_7691">
<rect width="12" height="12" fill="white" transform="translate(0.478516)"/>
</clipPath>
</defs>
</svg>
