<svg width="20" height="20" viewBox="0 0 20 20" fill="none" xmlns="http://www.w3.org/2000/svg">
<g clip-path="url(#clip0_21_6486)">
<path d="M14.9991 6.66699H8.33106C7.41106 6.66699 6.66406 7.41299 6.66406 8.33299V15C6.66406 15.92 7.41006 16.667 8.33106 16.667H14.9971C15.9171 16.667 16.6641 15.92 16.6641 15V8.33299C16.6641 7.41299 15.9181 6.66699 14.9971 6.66699H14.9991Z" fill="white" stroke="white"/>
<path fill-rule="evenodd" clip-rule="evenodd" d="M3.46898 3.46801C3.87501 3.06183 4.42567 2.83343 4.99998 2.83301H11.666C11.9506 2.83288 12.2325 2.88883 12.4956 2.99767C12.7586 3.10652 12.9976 3.26612 13.1989 3.46735C13.4003 3.66859 13.56 3.90752 13.6689 4.1705C13.7779 4.43348 13.834 4.71535 13.834 5.00001V6.66701C13.834 6.79962 13.7813 6.92679 13.6875 7.02056C13.5938 7.11433 13.4666 7.16701 13.334 7.16701C13.2014 7.16701 13.0742 7.11433 12.9804 7.02056C12.8867 6.92679 12.834 6.79962 12.834 6.66701V5.00001C12.834 4.6905 12.711 4.39367 12.4922 4.17481C12.2733 3.95596 11.9765 3.83301 11.667 3.83301H5.00098C4.69148 3.83301 4.39465 3.95596 4.17579 4.17481C3.95694 4.39367 3.83398 4.6905 3.83398 5.00001V11.667C3.83425 11.9763 3.95732 12.2729 4.17614 12.4916C4.39497 12.7102 4.69165 12.833 5.00098 12.833H6.66698C6.79959 12.833 6.92677 12.8857 7.02054 12.9795C7.11431 13.0732 7.16698 13.2004 7.16698 13.333C7.16698 13.4656 7.11431 13.5928 7.02054 13.6866C6.92677 13.7803 6.79959 13.833 6.66698 13.833H5.00098C4.42643 13.833 3.8754 13.6048 3.46904 13.1987C3.06267 12.7925 2.83425 12.2416 2.83398 11.667V5.00001C2.83398 4.42501 3.06198 3.87401 3.46898 3.46801Z" fill="white" stroke="white"/>
</g>
<defs>
<clipPath id="clip0_21_6486">
<rect width="20" height="20" fill="white"/>
</clipPath>
</defs>
</svg>
