<svg width="29" height="28" viewBox="0 0 29 28" fill="none" xmlns="http://www.w3.org/2000/svg">
<g clip-path="url(#clip0_21_7707)" filter="url(#filter0_d_21_7707)">
<path d="M11.2495 3.81803C12.2782 3.22366 13.4373 2.89122 14.6246 2.84996C15.812 2.80869 16.9913 3.05986 18.0588 3.58137C19.1264 4.10287 20.0493 4.87874 20.7466 5.8407C21.4439 6.80266 21.894 7.92124 22.0575 9.09803C22.0689 9.16412 22.0669 9.23184 22.0517 9.29715C22.0364 9.36246 22.0081 9.42403 21.9685 9.47819C21.9289 9.53235 21.8789 9.57799 21.8213 9.61239C21.7637 9.6468 21.6998 9.66927 21.6334 9.67846C21.5669 9.68766 21.4993 9.68339 21.4345 9.66591C21.3698 9.64844 21.3092 9.61811 21.2564 9.57673C21.2036 9.53536 21.1597 9.48378 21.1272 9.42508C21.0948 9.36638 21.0745 9.30174 21.0675 9.23503C20.8881 7.94223 20.3084 6.73803 19.4099 5.7914C18.5113 4.84476 17.3389 4.20319 16.0572 3.95668C14.7755 3.71018 13.4488 3.87112 12.2632 4.41693C11.0776 4.96273 10.0927 5.86601 9.44652 7.00003H11.5615C11.6941 7.00003 11.8213 7.05271 11.9151 7.14647C12.0088 7.24024 12.0615 7.36742 12.0615 7.50003C12.0615 7.63264 12.0088 7.75981 11.9151 7.85358C11.8213 7.94735 11.6941 8.00003 11.5615 8.00003H8.22852C8.09591 8.00003 7.96873 7.94735 7.87496 7.85358C7.78119 7.75981 7.72852 7.63264 7.72852 7.50003V4.16703C7.72852 4.03442 7.78119 3.90724 7.87496 3.81347C7.96873 3.71971 8.09591 3.66703 8.22852 3.66703C8.36112 3.66703 8.4883 3.71971 8.58207 3.81347C8.67584 3.90724 8.72852 4.03442 8.72852 4.16703V6.25303C9.35705 5.24739 10.2227 4.4113 11.2495 3.81803V3.81803ZM8.16052 10.338C8.22559 10.329 8.2918 10.3329 8.35537 10.3495C8.41894 10.366 8.47862 10.395 8.531 10.4346C8.58338 10.4743 8.62743 10.5239 8.66064 10.5806C8.69384 10.6373 8.71555 10.6999 8.72452 10.765C8.9042 12.0575 9.48393 13.2614 10.3824 14.2077C11.2809 15.1541 12.453 15.7955 13.7345 16.0419C15.0159 16.2884 16.3424 16.1276 17.5278 15.5821C18.7132 15.0365 19.6982 14.1337 20.3445 13H18.2285C18.0959 13 17.9687 12.9473 17.875 12.8536C17.7812 12.7598 17.7285 12.6326 17.7285 12.5C17.7285 12.3674 17.7812 12.2402 17.875 12.1465C17.9687 12.0527 18.0959 12 18.2285 12H21.5625C21.6951 12 21.8223 12.0527 21.9161 12.1465C22.0098 12.2402 22.0625 12.3674 22.0625 12.5V15.833C22.0625 15.9656 22.0098 16.0928 21.9161 16.1866C21.8223 16.2803 21.6951 16.333 21.5625 16.333C21.4299 16.333 21.3027 16.2803 21.209 16.1866C21.1152 16.0928 21.0625 15.9656 21.0625 15.833V13.747C20.2735 15.0095 19.1149 15.9984 17.7442 16.5795C16.3735 17.1605 14.8571 17.3055 13.4012 16.9948C11.9452 16.684 10.6202 15.9325 9.6062 14.8425C8.5922 13.7524 7.93836 12.3766 7.73352 10.902C7.72449 10.837 7.72838 10.7707 7.74496 10.7072C7.76154 10.6436 7.79048 10.5839 7.83014 10.5315C7.86979 10.4792 7.91938 10.4351 7.97607 10.4019C8.03276 10.3687 8.09543 10.347 8.16052 10.338V10.338Z" stroke="white" stroke-opacity="0.5"/>
</g>
<defs>
<filter id="filter0_d_21_7707" x="0.896484" y="0" width="28" height="28" filterUnits="userSpaceOnUse" color-interpolation-filters="sRGB">
<feFlood flood-opacity="0" result="BackgroundImageFix"/>
<feColorMatrix in="SourceAlpha" type="matrix" values="0 0 0 0 0 0 0 0 0 0 0 0 0 0 0 0 0 0 127 0" result="hardAlpha"/>
<feOffset dy="4"/>
<feGaussianBlur stdDeviation="2"/>
<feComposite in2="hardAlpha" operator="out"/>
<feColorMatrix type="matrix" values="0 0 0 0 0 0 0 0 0 0 0 0 0 0 0 0 0 0 0.25 0"/>
<feBlend mode="normal" in2="BackgroundImageFix" result="effect1_dropShadow_21_7707"/>
<feBlend mode="normal" in="SourceGraphic" in2="effect1_dropShadow_21_7707" result="shape"/>
</filter>
<clipPath id="clip0_21_7707">
<rect width="20" height="20" fill="white" transform="translate(4.89648)"/>
</clipPath>
</defs>
</svg>
