<svg width="20" height="20" viewBox="0 0 20 20" fill="none" xmlns="http://www.w3.org/2000/svg">
<g clip-path="url(#clip0_21_7702)">
<path d="M2.5 17.5V15.8338C2.5 14.9496 2.85123 14.1016 3.47643 13.4764C4.10163 12.8512 4.94958 12.5 5.83375 12.5H9.16625C10.0504 12.5 10.8984 12.8512 11.5236 13.4764C12.1488 14.1016 12.5 14.9496 12.5 15.8338V17.5M13.3337 2.60751C14.0507 2.79126 14.6861 3.20834 15.1398 3.79304C15.5936 4.37773 15.8398 5.09679 15.8398 5.83689C15.8398 6.57699 15.5936 7.29605 15.1398 7.88074C14.6861 8.46544 14.0507 8.88252 13.3337 9.06626M17.5 17.5V15.8338C17.4958 15.098 17.2483 14.3843 16.7961 13.8039C16.3439 13.2235 15.7124 12.809 15 12.625M7.5 9.16627C7.94314 9.17485 8.38355 9.09498 8.79546 8.93133C9.20737 8.76767 9.58251 8.52353 9.89893 8.21317C10.2154 7.90281 10.4667 7.53247 10.6383 7.12381C10.8099 6.71514 10.8983 6.27637 10.8983 5.83314C10.8983 5.38991 10.8099 4.95114 10.6383 4.54247C10.4667 4.13381 10.2154 3.76347 9.89893 3.45311C9.58251 3.14275 9.20737 2.8986 8.79546 2.73495C8.38355 2.5713 7.94314 2.49143 7.5 2.50001C6.62718 2.51692 5.79581 2.87551 5.18452 3.49876C4.57323 4.122 4.2308 4.96015 4.2308 5.83314C4.2308 6.70613 4.57323 7.54428 5.18452 8.16752C5.79581 8.79077 6.62718 9.14936 7.5 9.16627V9.16627Z" stroke="white" stroke-opacity="0.5" stroke-width="1.66625" stroke-linecap="round" stroke-linejoin="round"/>
</g>
<defs>
<clipPath id="clip0_21_7702">
<rect width="20" height="20" fill="white"/>
</clipPath>
</defs>
</svg>
