<svg width="96" height="96" viewBox="0 0 96 96" fill="none" xmlns="http://www.w3.org/2000/svg">
<g clip-path="url(#clip0_21_7744)">
<path fill-rule="evenodd" clip-rule="evenodd" d="M77.5914 29.9019C79.6781 30.3042 83.6829 31.5785 83.6829 31.5785L82.7516 28.8959C82.7063 28.7668 82.6359 28.648 82.5446 28.5462C82.4533 28.4444 82.3429 28.3616 82.2195 28.3025C82.0962 28.2434 81.9624 28.2092 81.8259 28.2019C81.6893 28.1945 81.5527 28.2142 81.4237 28.2597L77.5914 29.9019ZM95.9866 38.6856C95.979 39.1906 95.8075 39.6795 95.498 40.0786C90.8838 45.4151 89.098 50.6329 89.098 50.6329C40.2683 41.1421 29.9765 80.3833 29.9765 80.3833C28.7349 67.3534 31.7701 57.4333 37.0069 50.0427C16.9983 57.2436 3.68862 70.1625 3.68862 70.1625C3.68862 70.1625 8.86228 51.133 25.2915 38.5016C16.6496 38.8983 8.00958 40.4082 0 43.5929C0 43.5929 19.9377 19.8918 62.9404 23.1723C63.6819 18.2841 67.7519 15.6168 67.7519 15.6168C68.7904 23.8563 79.7126 23.4329 83.5449 25.2513C84.0197 26.0221 84.4158 26.8387 84.7272 27.6887C85.5167 29.8597 85.0568 30.6396 87.1416 31.6322L93.8654 35.0544C94.0857 35.1732 94.4977 35.4568 94.5073 35.4568C95.0042 35.8291 95.4008 36.3191 95.6613 36.8827C95.9219 37.4463 96.0383 38.0658 96 38.6856H95.9866Z" fill="white" fill-opacity="0.05"/>
</g>
<defs>
<clipPath id="clip0_21_7744">
<rect width="96" height="96" fill="white"/>
</clipPath>
</defs>
</svg>
