<svg width="25" height="24" viewBox="0 0 25 24" fill="none" xmlns="http://www.w3.org/2000/svg">
<path d="M9.5058 16.7109C9.5058 16.6406 9.43549 16.5703 9.33002 16.5703C9.22455 16.5703 9.15424 16.6406 9.15424 16.7109C9.15424 16.7812 9.22455 16.8516 9.33002 16.8164C9.43549 16.8164 9.5058 16.7812 9.5058 16.7109ZM8.41595 16.5352C8.41595 16.6055 8.48627 16.7109 8.59174 16.7109C8.66205 16.7461 8.76752 16.7109 8.80267 16.6406C8.80267 16.5703 8.76752 16.5 8.66205 16.4648C8.55658 16.4297 8.45111 16.4648 8.41595 16.5352ZM9.99799 16.5C9.89252 16.5 9.8222 16.5703 9.8222 16.6758C9.8222 16.7461 9.92767 16.7812 10.0331 16.7461C10.1386 16.7109 10.2089 16.6758 10.1738 16.6055C10.1738 16.5352 10.0683 16.4648 9.99799 16.5ZM12.2831 3C7.43158 3 3.70502 6.72656 3.70502 11.5781C3.70502 15.4805 6.1308 18.8203 9.64642 20.0156C10.1035 20.0859 10.2441 19.8047 10.2441 19.5938C10.2441 19.3477 10.2441 18.1523 10.2441 17.4141C10.2441 17.4141 7.78314 17.9414 7.2558 16.3594C7.2558 16.3594 6.86908 15.3398 6.30658 15.0938C6.30658 15.0938 5.49799 14.5312 6.34174 14.5312C6.34174 14.5312 7.22064 14.6016 7.71283 15.4453C8.48627 16.8164 9.75189 16.4297 10.2792 16.1836C10.3495 15.6211 10.5605 15.2344 10.8417 14.9883C8.87299 14.7773 6.86908 14.4961 6.86908 11.1211C6.86908 10.1367 7.15033 9.67969 7.71283 9.04688C7.60736 8.80078 7.32611 7.88672 7.8183 6.65625C8.52142 6.44531 10.2441 7.60547 10.2441 7.60547C10.9472 7.39453 11.6855 7.32422 12.4238 7.32422C13.1972 7.32422 13.9355 7.39453 14.6386 7.60547C14.6386 7.60547 16.3261 6.41016 17.0644 6.65625C17.5566 7.88672 17.2402 8.80078 17.1699 9.04688C17.7324 9.67969 18.0839 10.1367 18.0839 11.1211C18.0839 14.4961 16.0097 14.7773 14.041 14.9883C14.3574 15.2695 14.6386 15.7969 14.6386 16.6406C14.6386 17.8008 14.6035 19.2773 14.6035 19.5586C14.6035 19.8047 14.7792 20.0859 15.2363 19.9805C18.7519 18.8203 21.1425 15.4805 21.1425 11.5781C21.1425 6.72656 17.1699 3 12.2831 3ZM7.11517 15.1289C7.04486 15.1641 7.08002 15.2695 7.11517 15.3398C7.18549 15.375 7.2558 15.4102 7.32611 15.375C7.36127 15.3398 7.36127 15.2344 7.29095 15.1641C7.22064 15.1289 7.15033 15.0938 7.11517 15.1289ZM6.72845 14.8477C6.6933 14.918 6.72845 14.9531 6.79877 14.9883C6.86908 15.0234 6.93939 15.0234 6.97455 14.9531C6.97455 14.918 6.93939 14.8828 6.86908 14.8477C6.79877 14.8125 6.76361 14.8125 6.72845 14.8477ZM7.85345 16.1133C7.8183 16.1484 7.8183 16.2539 7.92377 16.3242C7.99408 16.3945 8.09955 16.4297 8.1347 16.3594C8.16986 16.3242 8.16986 16.2188 8.09955 16.1484C8.02924 16.0781 7.92377 16.043 7.85345 16.1133ZM7.46674 15.5859C7.39642 15.6211 7.39642 15.7266 7.46674 15.7969C7.53705 15.8672 7.60736 15.9023 7.67767 15.8672C7.71283 15.832 7.71283 15.7266 7.67767 15.6562C7.60736 15.5859 7.53705 15.5508 7.46674 15.5859Z" fill="white"/>
</svg>
