<svg width="40" height="41" viewBox="0 0 40 41" fill="none" xmlns="http://www.w3.org/2000/svg">
<rect y="0.333374" width="40" height="40" rx="20" fill="#2CFF4E" fill-opacity="0.2"/>
<g clip-path="url(#clip0_21_6717)">
<path fill-rule="evenodd" clip-rule="evenodd" d="M13.467 13.8014C13.8733 13.395 14.4244 13.1665 14.999 13.1664H23.333C23.5082 13.1664 23.6816 13.2009 23.8434 13.2679C24.0052 13.335 24.1522 13.4333 24.276 13.5572C24.3998 13.681 24.4979 13.8281 24.5649 13.99C24.6318 14.1518 24.6662 14.3252 24.666 14.5004V16.5004H24.999C25.1742 16.5003 25.3476 16.5346 25.5095 16.6016C25.6713 16.6685 25.8184 16.7667 25.9423 16.8905C26.0661 17.0142 26.1644 17.1612 26.2315 17.323C26.2985 17.4848 26.333 17.6582 26.333 17.8334V20.3334C26.333 20.466 26.2804 20.5932 26.1866 20.6869C26.0928 20.7807 25.9656 20.8334 25.833 20.8334C25.7004 20.8334 25.5732 20.7807 25.4795 20.6869C25.3857 20.5932 25.333 20.466 25.333 20.3334V17.8334C25.333 17.7896 25.3244 17.7462 25.3076 17.7057C25.2908 17.6653 25.2662 17.6285 25.2351 17.5976C25.2041 17.5666 25.1673 17.5421 25.1268 17.5254C25.0863 17.5088 25.0428 17.5003 24.999 17.5004H14.999C14.582 17.5004 14.179 17.3804 13.832 17.1594V25.3334C13.832 25.6429 13.955 25.9397 14.1738 26.1586C14.3927 26.3774 14.6895 26.5004 14.999 26.5004H24.999C25.0429 26.5005 25.0864 26.492 25.127 26.4752C25.1676 26.4585 25.2045 26.4339 25.2355 26.4028C25.2665 26.3718 25.2911 26.3349 25.3079 26.2944C25.3246 26.2538 25.3332 26.2103 25.333 26.1664V23.6664C25.333 23.5338 25.3857 23.4066 25.4795 23.3128C25.5732 23.2191 25.7004 23.1664 25.833 23.1664C25.9656 23.1664 26.0928 23.2191 26.1866 23.3128C26.2804 23.4066 26.333 23.5338 26.333 23.6664V26.1664C26.3333 26.3417 26.299 26.5153 26.232 26.6773C26.1651 26.8394 26.0669 26.9866 25.943 27.1106C25.819 27.2346 25.6719 27.333 25.5099 27.4C25.3479 27.4671 25.1743 27.5015 24.999 27.5014H14.999C14.7143 27.5015 14.4324 27.4455 14.1694 27.3366C13.9063 27.2277 13.6673 27.068 13.4661 26.8666C13.2648 26.6653 13.1052 26.4262 12.9964 26.1631C12.8876 25.9 12.8318 25.6181 12.832 25.3334V15.3334C12.832 14.7594 13.061 14.2074 13.467 13.8014ZM13.832 15.3334C13.832 15.6429 13.955 15.9397 14.1738 16.1586C14.3927 16.3774 14.6895 16.5004 14.999 16.5004H23.666V14.5004C23.666 14.4121 23.6309 14.3274 23.5685 14.2649C23.506 14.2025 23.4213 14.1674 23.333 14.1674H14.999C14.6897 14.1674 14.393 14.2902 14.1742 14.5088C13.9554 14.7275 13.8323 15.024 13.832 15.3334Z" fill="#2CFF4E"/>
<path fill-rule="evenodd" clip-rule="evenodd" d="M15 13.3334C14.4696 13.3334 13.9609 13.5441 13.5858 13.9192C13.2107 14.2942 13 14.8029 13 15.3334V26.3334C13 26.5986 13.1054 26.8529 13.2929 27.0405C13.4804 27.228 13.7348 27.3334 14 27.3334H25C25.2652 27.3334 25.5196 27.228 25.7071 27.0405C25.8946 26.8529 26 26.5986 26 26.3334V18.3334C26 18.0682 25.8946 17.8138 25.7071 17.6263C25.5196 17.4387 25.2652 17.3334 25 17.3334H24V15.3334C24 14.8029 23.7893 14.2942 23.4142 13.9192C23.0391 13.5441 22.5304 13.3334 22 13.3334H15Z" fill="#2CFF4E" fill-opacity="0.5"/>
<path d="M26.6672 20.3334V23.6664H23.3332C22.8983 23.6557 22.4848 23.4755 22.1809 23.1641C21.8771 22.8527 21.707 22.4349 21.707 21.9999C21.707 21.5648 21.8771 21.147 22.1809 20.8357C22.4848 20.5243 22.8983 20.344 23.3332 20.3334H26.6672Z" fill="#2CFF4E"/>
<path fill-rule="evenodd" clip-rule="evenodd" d="M23.3328 20.8334C23.1768 20.8288 23.0214 20.8556 22.8759 20.9122C22.7303 20.9687 22.5976 21.0539 22.4856 21.1627C22.3736 21.2715 22.2846 21.4016 22.2238 21.5454C22.163 21.6892 22.1317 21.8437 22.1317 21.9999C22.1317 22.156 22.163 22.3105 22.2238 22.4543C22.2846 22.5981 22.3736 22.7283 22.4856 22.8371C22.5976 22.9458 22.7303 23.031 22.8759 23.0876C23.0214 23.1442 23.1768 23.1709 23.3328 23.1664H26.1668V20.8334H23.3328ZM21.8008 20.4684C22.2071 20.0619 22.7582 19.8335 23.3328 19.8334H26.6668C26.7994 19.8334 26.9266 19.8861 27.0204 19.9798C27.1142 20.0736 27.1668 20.2008 27.1668 20.3334V23.6664C27.1668 23.799 27.1142 23.9262 27.0204 24.0199C26.9266 24.1137 26.7994 24.1664 26.6668 24.1664H23.3328C22.9043 24.1665 22.4854 24.0396 22.129 23.8016C21.7727 23.5636 21.4949 23.2253 21.3309 22.8294C21.1669 22.4335 21.124 21.9979 21.2077 21.5776C21.2913 21.1573 21.4977 20.7713 21.8008 20.4684Z" fill="#2CFF4E"/>
</g>
<defs>
<clipPath id="clip0_21_6717">
<rect width="20" height="20" fill="white" transform="translate(10 10.3334)"/>
</clipPath>
</defs>
</svg>
