<svg width="19" height="19" viewBox="0 0 19 19" fill="none" xmlns="http://www.w3.org/2000/svg">
<g clip-path="url(#clip0_21_7901)">
<path fill-rule="evenodd" clip-rule="evenodd" d="M3.75798 6.09063C3.93213 5.91653 4.13886 5.77844 4.36638 5.68424C4.5939 5.59004 4.83774 5.54158 5.08398 5.54163H8.83398C8.93344 5.54163 9.02882 5.58113 9.09915 5.65146C9.16948 5.72179 9.20898 5.81717 9.20898 5.91663C9.20898 6.01608 9.16948 6.11146 9.09915 6.18179C9.02882 6.25212 8.93344 6.29163 8.83398 6.29163H5.08398C4.78562 6.29163 4.49947 6.41015 4.28849 6.62113C4.07751 6.83211 3.95898 7.11826 3.95898 7.41663V14.1666C3.95898 14.465 4.07751 14.7511 4.28849 14.9621C4.49947 15.1731 4.78562 15.2916 5.08398 15.2916H11.834C12.1324 15.2916 12.4185 15.1731 12.6295 14.9621C12.8405 14.7511 12.959 14.465 12.959 14.1666V10.4166C12.959 10.3172 12.9985 10.2218 13.0688 10.1515C13.1391 10.0811 13.2345 10.0416 13.334 10.0416C13.4334 10.0416 13.5288 10.0811 13.5991 10.1515C13.6695 10.2218 13.709 10.3172 13.709 10.4166V14.1666C13.709 14.4129 13.6605 14.6567 13.5663 14.8842C13.472 15.1116 13.3339 15.3183 13.1598 15.4925C12.9857 15.6666 12.779 15.8047 12.5515 15.8989C12.324 15.9931 12.0802 16.0416 11.834 16.0416H5.08398C4.83776 16.0416 4.59394 15.9931 4.36645 15.8989C4.13897 15.8047 3.93227 15.6666 3.75816 15.4925C3.58405 15.3183 3.44594 15.1116 3.35171 14.8842C3.25748 14.6567 3.20898 14.4129 3.20898 14.1666V7.41663C3.20894 7.17038 3.2574 6.92654 3.3516 6.69902C3.44579 6.4715 3.58389 6.26477 3.75798 6.09063Z" fill="white"/>
<path fill-rule="evenodd" clip-rule="evenodd" d="M15.85 3.40112C15.8849 3.43596 15.9126 3.47734 15.9315 3.5229C15.9504 3.56846 15.9601 3.6173 15.9601 3.66662C15.9601 3.71595 15.9504 3.76479 15.9315 3.81035C15.9126 3.85591 15.8849 3.89729 15.85 3.93213L8.34996 11.4321C8.27954 11.5025 8.18404 11.5421 8.08446 11.5421C7.98488 11.5421 7.88937 11.5025 7.81896 11.4321C7.74854 11.3617 7.70898 11.2662 7.70898 11.1666C7.70898 11.067 7.74854 10.9715 7.81896 10.9011L15.319 3.40112C15.3538 3.3662 15.3952 3.3385 15.4407 3.31959C15.4863 3.30069 15.5351 3.29095 15.5845 3.29095C15.6338 3.29095 15.6826 3.30069 15.7282 3.31959C15.7737 3.3385 15.8151 3.3662 15.85 3.40112Z" fill="white"/>
<path fill-rule="evenodd" clip-rule="evenodd" d="M11.459 3.66663C11.459 3.56717 11.4985 3.47179 11.5688 3.40146C11.6391 3.33113 11.7345 3.29163 11.834 3.29163H15.584C15.6834 3.29163 15.7788 3.33113 15.8491 3.40146C15.9195 3.47179 15.959 3.56717 15.959 3.66663V7.41663C15.959 7.51608 15.9195 7.61146 15.8491 7.68179C15.7788 7.75212 15.6834 7.79163 15.584 7.79163C15.4845 7.79163 15.3891 7.75212 15.3188 7.68179C15.2485 7.61146 15.209 7.51608 15.209 7.41663V4.04163H11.834C11.7345 4.04163 11.6391 4.00212 11.5688 3.93179C11.4985 3.86146 11.459 3.76608 11.459 3.66663Z" fill="white"/>
</g>
<defs>
<clipPath id="clip0_21_7901">
<rect width="18" height="18" fill="white" transform="translate(0.583984 0.666626)"/>
</clipPath>
</defs>
</svg>
