<svg width="21" height="20" viewBox="0 0 21 20" fill="none" xmlns="http://www.w3.org/2000/svg">
<g clip-path="url(#clip0_21_7863)">
<path d="M3.22852 17.5V15.8338C3.22852 14.9496 3.57975 14.1016 4.20495 13.4764C4.83015 12.8512 5.6781 12.5 6.56227 12.5H9.89477C10.7789 12.5 11.6269 12.8512 12.2521 13.4764C12.8773 14.1016 13.2285 14.9496 13.2285 15.8338V17.5M14.0623 2.60751C14.7792 2.79126 15.4146 3.20834 15.8683 3.79304C16.3221 4.37773 16.5684 5.09679 16.5684 5.83689C16.5684 6.57699 16.3221 7.29605 15.8683 7.88074C15.4146 8.46544 14.7792 8.88252 14.0623 9.06626M18.2285 17.5V15.8338C18.2243 15.098 17.9768 14.3843 17.5246 13.8039C17.0724 13.2235 16.4409 12.809 15.7285 12.625M8.22852 9.16627C8.67166 9.17485 9.11207 9.09498 9.52397 8.93133C9.93588 8.76767 10.311 8.52353 10.6274 8.21317C10.9439 7.90281 11.1952 7.53247 11.3668 7.12381C11.5384 6.71514 11.6268 6.27637 11.6268 5.83314C11.6268 5.38991 11.5384 4.95114 11.3668 4.54247C11.1952 4.13381 10.9439 3.76347 10.6274 3.45311C10.311 3.14275 9.93588 2.8986 9.52397 2.73495C9.11207 2.5713 8.67166 2.49143 8.22852 2.50001C7.35569 2.51692 6.52433 2.87551 5.91304 3.49876C5.30175 4.122 4.95932 4.96015 4.95932 5.83314C4.95932 6.70613 5.30175 7.54428 5.91304 8.16752C6.52433 8.79077 7.35569 9.14936 8.22852 9.16627V9.16627Z" stroke="white" stroke-width="1.66625" stroke-linecap="round" stroke-linejoin="round"/>
</g>
<defs>
<clipPath id="clip0_21_7863">
<rect width="20" height="20" fill="white" transform="translate(0.728516)"/>
</clipPath>
</defs>
</svg>
