<svg width="19" height="19" viewBox="0 0 19 19" fill="none" xmlns="http://www.w3.org/2000/svg">
<g clip-path="url(#clip0_21_7897)">
<path d="M14.0835 6.66693H8.08233C7.25433 6.66693 6.58203 7.33833 6.58203 8.16633V14.1666C6.58203 14.9946 7.25343 15.6669 8.08233 15.6669H14.0817C14.9097 15.6669 15.582 14.9946 15.582 14.1666V8.16633C15.582 7.33833 14.9106 6.66693 14.0817 6.66693H14.0835Z" fill="white"/>
<path fill-rule="evenodd" clip-rule="evenodd" d="M3.70627 3.78781C4.07169 3.42224 4.56728 3.21669 5.08417 3.21631H11.0836C11.3398 3.21619 11.5935 3.26655 11.8302 3.36451C12.0669 3.46247 12.282 3.60611 12.4632 3.78722C12.6444 3.96833 12.7882 4.18337 12.8862 4.42005C12.9843 4.65673 13.0348 4.91042 13.0348 5.16661V6.66691C13.0348 6.78626 12.9874 6.90072 12.903 6.98511C12.8186 7.0695 12.7041 7.11691 12.5848 7.11691C12.4654 7.11691 12.351 7.0695 12.2666 6.98511C12.1822 6.90072 12.1348 6.78626 12.1348 6.66691V5.16661C12.1348 4.88805 12.0241 4.6209 11.8271 4.42393C11.6302 4.22697 11.363 4.11631 11.0845 4.11631H5.08507C4.80651 4.11631 4.53936 4.22697 4.34239 4.42393C4.14542 4.6209 4.03477 4.88805 4.03477 5.16661V11.1669C4.035 11.4453 4.14577 11.7122 4.34271 11.909C4.53965 12.1058 4.80666 12.2163 5.08507 12.2163H6.58447C6.70381 12.2163 6.81827 12.2637 6.90266 12.3481C6.98706 12.4325 7.03447 12.547 7.03447 12.6663C7.03447 12.7857 6.98706 12.9001 6.90266 12.9845C6.81827 13.0689 6.70381 13.1163 6.58447 13.1163H5.08507C4.56797 13.1163 4.07204 12.911 3.70631 12.5454C3.34059 12.1798 3.135 11.684 3.13477 11.1669V5.16661C3.13477 4.64911 3.33997 4.15321 3.70627 3.78781Z" fill="white"/>
</g>
<defs>
<clipPath id="clip0_21_7897">
<rect width="18" height="18" fill="white" transform="translate(0.583984 0.666626)"/>
</clipPath>
</defs>
</svg>
