<svg width="25" height="24" viewBox="0 0 25 24" fill="none" xmlns="http://www.w3.org/2000/svg">
<path fill-rule="evenodd" clip-rule="evenodd" d="M12.705 3C10.2606 3 9.95462 3.0102 8.99462 3.054C8.03642 3.0978 7.38182 3.2502 6.80942 3.4728C6.20942 3.6984 5.66522 4.0524 5.21522 4.5108C4.75755 4.96028 4.40333 5.5041 4.17722 6.1044C3.95582 6.6768 3.80282 7.332 3.75902 8.2902C3.71582 9.2496 3.70502 9.555 3.70502 12C3.70502 14.445 3.71522 14.7504 3.75902 15.7104C3.80282 16.6686 3.95522 17.3232 4.17782 17.8956C4.40342 18.4956 4.75742 19.0398 5.21582 19.4898C5.66531 19.9475 6.20912 20.3017 6.80942 20.5278C7.38182 20.7498 8.03642 20.9022 8.99462 20.946C9.95462 20.9898 10.2606 21 12.705 21C15.1494 21 15.4554 20.9898 16.4154 20.946C17.3736 20.9022 18.0282 20.7498 18.6006 20.5272C19.2006 20.3016 19.7448 19.9476 20.1948 19.4892C20.6525 19.0397 21.0067 18.4959 21.2328 17.8956C21.4548 17.3232 21.6072 16.6686 21.651 15.7104C21.6948 14.7504 21.705 14.4444 21.705 12C21.705 9.5556 21.6948 9.2496 21.651 8.2896C21.6072 7.3314 21.4548 6.6768 21.2322 6.1044C21.0063 5.50384 20.652 4.95979 20.1942 4.5102C19.7447 4.05253 19.2009 3.69831 18.6006 3.4722C18.0282 3.2508 17.373 3.0978 16.4148 3.054C15.4554 3.0108 15.15 3 12.705 3ZM12.705 4.6218C15.108 4.6218 15.393 4.6308 16.3422 4.674C17.2194 4.7142 17.6958 4.86 18.0132 4.9842C18.4332 5.1468 18.7332 5.3424 19.0482 5.6568C19.3632 5.9718 19.5582 6.2718 19.7208 6.6918C19.8444 7.0092 19.9908 7.4856 20.031 8.3628C20.0742 9.312 20.0832 9.597 20.0832 12C20.0832 14.403 20.0742 14.688 20.031 15.6372C19.9908 16.5144 19.845 16.9908 19.7208 17.3082C19.5768 17.6991 19.3469 18.0528 19.0482 18.3432C18.7579 18.642 18.4042 18.8718 18.0132 19.0158C17.6958 19.1394 17.2194 19.2858 16.3422 19.326C15.393 19.3692 15.1086 19.3782 12.705 19.3782C10.3014 19.3782 10.017 19.3692 9.06782 19.326C8.19062 19.2858 7.71422 19.14 7.39682 19.0158C7.00589 18.8718 6.65222 18.6419 6.36182 18.3432C6.06312 18.0528 5.83329 17.6991 5.68922 17.3082C5.56562 16.9908 5.41922 16.5144 5.37902 15.6372C5.33582 14.688 5.32682 14.403 5.32682 12C5.32682 9.597 5.33582 9.312 5.37902 8.3628C5.41922 7.4856 5.56502 7.0092 5.68922 6.6918C5.85182 6.2718 6.04742 5.9718 6.36182 5.6568C6.65218 5.35803 7.00586 5.12819 7.39682 4.9842C7.71422 4.8606 8.19062 4.7142 9.06782 4.674C10.017 4.6308 10.302 4.6218 12.705 4.6218Z" fill="white"/>
<path fill-rule="evenodd" clip-rule="evenodd" d="M12.705 15.003C12.3107 15.003 11.9202 14.9254 11.5558 14.7744C11.1915 14.6235 10.8605 14.4023 10.5816 14.1235C10.3027 13.8446 10.0815 13.5136 9.93063 13.1492C9.77971 12.7849 9.70204 12.3944 9.70204 12C9.70204 11.6057 9.77971 11.2152 9.93063 10.8508C10.0815 10.4865 10.3027 10.1554 10.5816 9.87659C10.8605 9.59774 11.1915 9.37654 11.5558 9.22562C11.9202 9.07471 12.3107 8.99703 12.705 8.99703C13.5015 8.99703 14.2653 9.31342 14.8285 9.87659C15.3917 10.4398 15.708 11.2036 15.708 12C15.708 12.7965 15.3917 13.5603 14.8285 14.1235C14.2653 14.6866 13.5015 15.003 12.705 15.003ZM12.705 7.37403C11.4781 7.37403 10.3015 7.86141 9.43396 8.72896C8.56642 9.5965 8.07904 10.7731 8.07904 12C8.07904 13.2269 8.56642 14.4036 9.43396 15.2711C10.3015 16.1387 11.4781 16.626 12.705 16.626C13.9319 16.626 15.1086 16.1387 15.9761 15.2711C16.8437 14.4036 17.331 13.2269 17.331 12C17.331 10.7731 16.8437 9.5965 15.9761 8.72896C15.1086 7.86141 13.9319 7.37403 12.705 7.37403ZM18.6768 7.29003C18.6768 7.58005 18.5616 7.85818 18.3566 8.06325C18.1515 8.26833 17.8734 8.38353 17.5833 8.38353C17.2933 8.38353 17.0152 8.26833 16.8101 8.06325C16.605 7.85818 16.4898 7.58005 16.4898 7.29003C16.4898 7.00002 16.605 6.72188 16.8101 6.51681C17.0152 6.31174 17.2933 6.19653 17.5833 6.19653C17.8734 6.19653 18.1515 6.31174 18.3566 6.51681C18.5616 6.72188 18.6768 7.00002 18.6768 7.29003Z" fill="white"/>
</svg>
