<svg width="114" height="15" viewBox="0 0 114 15" fill="none" xmlns="http://www.w3.org/2000/svg">
<path d="M0.5 0.5V9.34C0.5 12.04 1.9 14 5.48 14H10.86V11.64H5.62C3.5 11.64 2.86 10.62 2.86 9.32V0.5H0.5ZM12.6298 0.5V9.7C12.6298 12.54 14.1098 14 16.9898 14H19.8298C22.7098 14 24.2098 12.54 24.2098 9.7V0.5H21.8898V9.52C21.8898 10.86 21.1898 11.64 19.6698 11.64H17.2698C15.7098 11.64 15.0298 10.86 15.0298 9.52V0.5H12.6298ZM29.7183 3.32C29.7183 2.84 29.9983 2.54 30.5383 2.54C30.9583 2.54 31.1983 2.72 31.3783 3.12L35.3183 11.74C35.8783 13.28 36.7383 14.24 38.6183 14.24C40.6983 14.24 41.7183 13.06 41.7183 11.28V0.5H39.3383V11.18C39.3383 11.64 39.0383 11.94 38.5383 11.94C38.0983 11.94 37.8383 11.7 37.6783 11.38L33.7383 2.76C33.1783 1.22 32.3383 0.259999 30.4583 0.259999C28.3583 0.259999 27.3583 1.44 27.3583 3.2V14H29.7183V3.32ZM49.7366 3.14C49.8766 2.82 50.0966 2.68 50.4166 2.68C50.7366 2.68 50.9566 2.82 51.0766 3.14L55.1766 14H57.7966L53.2366 2C52.7566 0.739999 51.8366 0.259999 50.4366 0.259999C49.0166 0.259999 48.0966 0.739999 47.5966 2L42.8566 14H45.4566L49.7366 3.14ZM59.7602 0.5V2.86H67.1602C68.4602 2.86 69.0402 3.68 69.0402 4.64C69.0402 5.6 68.5002 6.52 67.1602 6.52H61.9002C60.4202 6.52 59.7802 7.14 59.7802 8.66V14H62.1402V9.12C62.1402 8.88 62.2602 8.78 62.4802 8.78H66.0002L69.0802 14H71.7002L68.5602 8.6C70.6202 8.02 71.4202 6.22 71.4202 4.54C71.4202 2.38 70.1202 0.5 67.0802 0.5H59.7602ZM73.6445 0.5V9.34C73.6445 12.04 75.0445 14 78.6245 14H84.0045V11.64H78.7645C76.6445 11.64 76.0045 10.62 76.0045 9.32V0.5H73.6445ZM91.8459 3.14C91.9859 2.82 92.2059 2.68 92.5259 2.68C92.8459 2.68 93.0659 2.82 93.1859 3.14L97.2859 14H99.9059L95.3459 2C94.8659 0.739999 93.9459 0.259999 92.5459 0.259999C91.1259 0.259999 90.2059 0.739999 89.7059 2L84.9659 14H87.5659L91.8459 3.14ZM103.03 0.5C102.27 0.5 101.91 0.86 101.91 1.6V12.9C101.91 13.64 102.27 14 103.03 14H109.03C112.21 14 113.55 12.44 113.55 10.28C113.55 8.72 112.83 7.72 111.55 7.2C112.81 6.7 113.49 5.76 113.49 4.2C113.49 2 112.15 0.5 108.97 0.5H103.03ZM104.23 8.16H109.09C110.47 8.16 111.17 8.76 111.17 9.9C111.17 11 110.51 11.66 109.09 11.66H104.49C104.33 11.66 104.23 11.6 104.23 11.44V8.16ZM104.23 3.06C104.23 2.9 104.33 2.82 104.49 2.82H109.05C110.49 2.82 111.11 3.52 111.11 4.58C111.11 5.68 110.43 6.2 109.03 6.2H104.23V3.06Z" fill="white"/>
</svg>
