<svg width="48" height="48" viewBox="0 0 48 48" fill="none" xmlns="http://www.w3.org/2000/svg">
<g clip-path="url(#clip0_147_1428)">
<rect width="48" height="48" rx="10" fill="white"/>
<g clip-path="url(#clip1_147_1428)">
<path d="M48 0H0V48H48V0Z" fill="white"/>
<path d="M41.2956 5.34839L26.3051 16.4821L29.0772 9.91336L41.2956 5.34839Z" fill="#E2761B" stroke="#E2761B" stroke-width="0.150659" stroke-linecap="round" stroke-linejoin="round"/>
<path d="M6.68927 5.34839L21.5594 16.5876L18.9228 9.91336L6.68927 5.34839Z" fill="#E4761B" stroke="#E4761B" stroke-width="0.150659" stroke-linecap="round" stroke-linejoin="round"/>
<path d="M35.9021 31.1562L31.9095 37.273L40.452 39.6233L42.9077 31.2918L35.9021 31.1562Z" fill="#E4761B" stroke="#E4761B" stroke-width="0.150659" stroke-linecap="round" stroke-linejoin="round"/>
<path d="M5.10736 31.2918L7.54802 39.6233L16.0904 37.273L12.0979 31.1562L5.10736 31.2918Z" fill="#E4761B" stroke="#E4761B" stroke-width="0.150659" stroke-linecap="round" stroke-linejoin="round"/>
<path d="M15.6082 20.821L13.2278 24.4219L21.71 24.7985L21.4087 15.6836L15.6082 20.821Z" fill="#E4761B" stroke="#E4761B" stroke-width="0.150659" stroke-linecap="round" stroke-linejoin="round"/>
<path d="M32.3767 20.821L26.501 15.5781L26.3051 24.7985L34.7721 24.4219L32.3767 20.821Z" fill="#E4761B" stroke="#E4761B" stroke-width="0.150659" stroke-linecap="round" stroke-linejoin="round"/>
<path d="M16.0904 37.273L21.1827 34.7871L16.7834 31.3522L16.0904 37.273Z" fill="#E4761B" stroke="#E4761B" stroke-width="0.150659" stroke-linecap="round" stroke-linejoin="round"/>
<path d="M26.8024 34.7871L31.9096 37.273L31.2016 31.3522L26.8024 34.7871Z" fill="#E4761B" stroke="#E4761B" stroke-width="0.150659" stroke-linecap="round" stroke-linejoin="round"/>
<path d="M31.9096 37.273L26.8024 34.7871L27.209 38.1168L27.1639 39.5179L31.9096 37.273Z" fill="#D7C1B3" stroke="#D7C1B3" stroke-width="0.150659" stroke-linecap="round" stroke-linejoin="round"/>
<path d="M16.0904 37.273L20.8361 39.5179L20.8059 38.1168L21.1827 34.7871L16.0904 37.273Z" fill="#D7C1B3" stroke="#D7C1B3" stroke-width="0.150659" stroke-linecap="round" stroke-linejoin="round"/>
<path d="M20.9116 29.1524L16.6629 27.902L19.661 26.5311L20.9116 29.1524Z" fill="#233447" stroke="#233447" stroke-width="0.150659" stroke-linecap="round" stroke-linejoin="round"/>
<path d="M27.0734 29.1524L28.3239 26.5311L31.3371 27.902L27.0734 29.1524Z" fill="#233447" stroke="#233447" stroke-width="0.150659" stroke-linecap="round" stroke-linejoin="round"/>
<path d="M16.0904 37.273L16.8135 31.1562L12.0979 31.2918L16.0904 37.273Z" fill="#CD6116" stroke="#CD6116" stroke-width="0.150659" stroke-linecap="round" stroke-linejoin="round"/>
<path d="M31.1865 31.1562L31.9095 37.273L35.9021 31.2918L31.1865 31.1562Z" fill="#CD6116" stroke="#CD6116" stroke-width="0.150659" stroke-linecap="round" stroke-linejoin="round"/>
<path d="M34.7721 24.4219L26.3051 24.7985L27.0885 29.1526L28.3391 26.5311L31.3523 27.902L34.7721 24.4219Z" fill="#CD6116" stroke="#CD6116" stroke-width="0.150659" stroke-linecap="round" stroke-linejoin="round"/>
<path d="M16.6629 27.902L19.676 26.5311L20.9115 29.1526L21.71 24.7985L13.2278 24.4219L16.6629 27.902Z" fill="#CD6116" stroke="#CD6116" stroke-width="0.150659" stroke-linecap="round" stroke-linejoin="round"/>
<path d="M13.2278 24.4219L16.7834 31.3522L16.6629 27.902L13.2278 24.4219Z" fill="#E4751F" stroke="#E4751F" stroke-width="0.150659" stroke-linecap="round" stroke-linejoin="round"/>
<path d="M31.3522 27.902L31.2015 31.3522L34.7721 24.4219L31.3522 27.902Z" fill="#E4751F" stroke="#E4751F" stroke-width="0.150659" stroke-linecap="round" stroke-linejoin="round"/>
<path d="M21.7101 24.7985L20.9116 29.1526L21.9058 34.2899L22.1318 27.5254L21.7101 24.7985Z" fill="#E4751F" stroke="#E4751F" stroke-width="0.150659" stroke-linecap="round" stroke-linejoin="round"/>
<path d="M26.3051 24.7985L25.8983 27.5103L26.0791 34.2899L27.0885 29.1526L26.3051 24.7985Z" fill="#E4751F" stroke="#E4751F" stroke-width="0.150659" stroke-linecap="round" stroke-linejoin="round"/>
<path d="M27.0885 29.1525L26.0791 34.29L26.8024 34.7872L31.2016 31.3523L31.3522 27.9021L27.0885 29.1525Z" fill="#F6851B" stroke="#F6851B" stroke-width="0.150659" stroke-linecap="round" stroke-linejoin="round"/>
<path d="M16.6629 27.9021L16.7834 31.3523L21.1828 34.7872L21.9058 34.29L20.9116 29.1525L16.6629 27.9021Z" fill="#F6851B" stroke="#F6851B" stroke-width="0.150659" stroke-linecap="round" stroke-linejoin="round"/>
<path d="M27.1639 39.5179L27.209 38.1168L26.8323 37.7853H21.1526L20.8059 38.1168L20.8361 39.5179L16.0904 37.2731L17.7477 38.6291L21.1073 40.9643H26.8776L30.2523 38.6291L31.9095 37.2731L27.1639 39.5179Z" fill="#C0AD9E" stroke="#C0AD9E" stroke-width="0.150659" stroke-linecap="round" stroke-linejoin="round"/>
<path d="M26.8024 34.7872L26.0791 34.29H21.9059L21.1828 34.7872L20.806 38.1168L21.1526 37.7853H26.8324L27.209 38.1168L26.8024 34.7872Z" fill="#161616" stroke="#161616" stroke-width="0.150659" stroke-linecap="round" stroke-linejoin="round"/>
<path d="M41.9285 17.2052L43.2091 11.0584L41.2956 5.34839L26.8024 16.1054L32.3767 20.821L40.2561 23.1262L42.0038 21.0922L41.2505 20.5498L42.4557 19.4501L41.5217 18.7268L42.7269 17.8078L41.9285 17.2052Z" fill="#763D16" stroke="#763D16" stroke-width="0.150659" stroke-linecap="round" stroke-linejoin="round"/>
<path d="M4.79095 11.0584L6.07156 17.2052L5.25801 17.8078L6.46327 18.7268L5.54426 19.4501L6.74953 20.5498L5.99623 21.0922L7.72881 23.1262L15.6083 20.821L21.1827 16.1054L6.68927 5.34839L4.79095 11.0584Z" fill="#763D16" stroke="#763D16" stroke-width="0.150659" stroke-linecap="round" stroke-linejoin="round"/>
<path d="M40.2561 23.1262L32.3767 20.821L34.7721 24.4219L31.2015 31.3522L35.9021 31.2919H42.9077L40.2561 23.1262Z" fill="#F6851B" stroke="#F6851B" stroke-width="0.150659" stroke-linecap="round" stroke-linejoin="round"/>
<path d="M15.6083 20.821L7.72883 23.1262L5.10736 31.2919H12.0979L16.7834 31.3522L13.2279 24.4219L15.6083 20.821Z" fill="#F6851B" stroke="#F6851B" stroke-width="0.150659" stroke-linecap="round" stroke-linejoin="round"/>
<path d="M26.305 24.7985L26.8023 16.1054L29.0923 9.91333H18.9228L21.1827 16.1054L21.71 24.7985L21.8907 27.5405L21.9058 34.29H26.0791L26.1092 27.5405L26.305 24.7985Z" fill="#F6851B" stroke="#F6851B" stroke-width="0.150659" stroke-linecap="round" stroke-linejoin="round"/>
</g>
<rect x="0.5" y="0.5" width="47" height="47" rx="9.5" stroke="black" stroke-opacity="0.04"/>
</g>
<defs>
<clipPath id="clip0_147_1428">
<rect width="48" height="48" rx="10" fill="white"/>
</clipPath>
<clipPath id="clip1_147_1428">
<rect width="48" height="48" fill="white"/>
</clipPath>
</defs>
</svg>
