<svg width="20" height="20" viewBox="0 0 20 20" fill="none" xmlns="http://www.w3.org/2000/svg">
<g clip-path="url(#clip0_21_6559)">
<path fill-rule="evenodd" clip-rule="evenodd" d="M17.2285 10.3334C17.2285 12.3225 16.4383 14.2302 15.0318 15.6367C13.6253 17.0432 11.7176 17.8334 9.72852 17.8334C7.73939 17.8334 5.83174 17.0432 4.42521 15.6367C3.01869 14.2302 2.22852 12.3225 2.22852 10.3334C2.22852 8.34425 3.01869 6.4366 4.42521 5.03007C5.83174 3.62355 7.73939 2.83337 9.72852 2.83337C11.7176 2.83337 13.6253 3.62355 15.0318 5.03007C16.4383 6.4366 17.2285 8.34425 17.2285 10.3334V10.3334ZM9.15852 11.4834C9.19852 11.5234 9.24852 11.5434 9.30852 11.5434H10.2985C10.3715 11.5434 10.4285 11.5234 10.4685 11.4834C10.5176 11.4281 10.5551 11.3635 10.5785 11.2934C10.5855 11.2334 10.6015 11.1204 10.6285 10.9534C10.6688 10.7661 10.7471 10.5892 10.8585 10.4334C10.9785 10.2664 11.1455 10.0704 11.3585 9.84337C11.6515 9.52337 11.8715 9.24037 12.0185 8.99337C12.1715 8.74637 12.2485 8.45637 12.2485 8.12337C12.2463 7.82224 12.1597 7.52775 11.9985 7.27337C11.8385 7.00037 11.5785 6.77637 11.2185 6.60337C10.8655 6.42337 10.4115 6.33337 9.85852 6.33337C9.32552 6.33337 8.86152 6.43337 8.46852 6.63337C8.07552 6.82637 7.77152 7.08337 7.55852 7.40337C7.35152 7.72337 7.24152 8.06637 7.22852 8.43337C7.22852 8.50637 7.24852 8.56637 7.28852 8.61337C7.33552 8.66037 7.39152 8.68337 7.45852 8.68337H8.32852C8.47552 8.68337 8.57152 8.60637 8.61852 8.45337C8.75152 7.80637 9.14152 7.48337 9.78852 7.48337C10.0755 7.48337 10.3185 7.56337 10.5185 7.72337C10.7255 7.88337 10.8155 8.10037 10.7885 8.37337C10.7717 8.54202 10.7056 8.702 10.5985 8.83337C10.4459 9.03209 10.2787 9.21927 10.0985 9.39337C9.80552 9.68637 9.57552 9.95337 9.40852 10.1934C9.24152 10.4334 9.14152 10.7104 9.10852 11.0234C9.10152 11.0964 9.09852 11.2034 9.09852 11.3434C9.09852 11.3964 9.11852 11.4434 9.15852 11.4834V11.4834ZM9.10852 13.7334C9.15552 13.7804 9.21152 13.8034 9.27852 13.8034H10.2685C10.3017 13.8046 10.3348 13.799 10.3657 13.7869C10.3967 13.7749 10.4249 13.7567 10.4485 13.7334C10.4712 13.7113 10.4891 13.6849 10.5012 13.6556C10.5132 13.6264 10.5191 13.595 10.5185 13.5634V12.6734C10.5187 12.6409 10.5116 12.6087 10.4978 12.5793C10.4839 12.5499 10.4637 12.524 10.4385 12.5034C10.4165 12.4807 10.39 12.4628 10.3608 12.4507C10.3315 12.4387 10.3001 12.4328 10.2685 12.4334H9.27852C9.2469 12.4328 9.21549 12.4387 9.18625 12.4507C9.15701 12.4628 9.13055 12.4807 9.10852 12.5034C9.08583 12.5254 9.06792 12.5519 9.05587 12.5811C9.04383 12.6104 9.03793 12.6418 9.03852 12.6734V13.5634C9.03852 13.6304 9.06152 13.6864 9.10852 13.7334Z" fill="white"/>
</g>
<defs>
<clipPath id="clip0_21_6559">
<rect width="20" height="20" fill="white" transform="translate(0.228516 0.333374)"/>
</clipPath>
</defs>
</svg>
