<svg width="40" height="41" viewBox="0 0 40 41" fill="none" xmlns="http://www.w3.org/2000/svg">
<rect y="0.666748" width="40" height="40" rx="20" fill="#D03A94" fill-opacity="0.2"/>
<g clip-path="url(#clip0_21_6878)">
<path d="M20 30.6667C25.523 30.6667 30 26.1897 30 20.6667C30 15.1437 25.523 10.6667 20 10.6667C14.477 10.6667 10 15.1437 10 20.6667C10 26.1897 14.477 30.6667 20 30.6667Z" fill="#D03A94" fill-opacity="0.3"/>
<path d="M20 26.6667C21.5913 26.6667 23.1174 26.0346 24.2426 24.9094C25.3679 23.7842 26 22.258 26 20.6667C26 19.0754 25.3679 17.5493 24.2426 16.4241C23.1174 15.2989 21.5913 14.6667 20 14.6667C18.4087 14.6667 16.8826 15.2989 15.7574 16.4241C14.6321 17.5493 14 19.0754 14 20.6667C14 22.258 14.6321 23.7842 15.7574 24.9094C16.8826 26.0346 18.4087 26.6667 20 26.6667Z" fill="#D03A94" fill-opacity="0.3"/>
<path d="M20 22.6667C20.5304 22.6667 21.0391 22.456 21.4142 22.081C21.7893 21.7059 22 21.1972 22 20.6667C22 20.1363 21.7893 19.6276 21.4142 19.2525C21.0391 18.8775 20.5304 18.6667 20 18.6667C19.4696 18.6667 18.9609 18.8775 18.5858 19.2525C18.2107 19.6276 18 20.1363 18 20.6667C18 21.1972 18.2107 21.7059 18.5858 22.081C18.9609 22.456 19.4696 22.6667 20 22.6667Z" fill="#D03A94"/>
</g>
<defs>
<clipPath id="clip0_21_6878">
<rect width="20" height="20" fill="white" transform="translate(10 10.6667)"/>
</clipPath>
</defs>
</svg>
