<svg width="21" height="20" viewBox="0 0 21 20" fill="none" xmlns="http://www.w3.org/2000/svg">
<g clip-path="url(#clip0_21_7868)">
<path d="M6.74952 3.81803C7.77824 3.22366 8.93728 2.89122 10.1246 2.84996C11.312 2.80869 12.4913 3.05986 13.5588 3.58137C14.6264 4.10287 15.5493 4.87874 16.2466 5.8407C16.9439 6.80266 17.394 7.92124 17.5575 9.09803C17.5689 9.16412 17.5669 9.23184 17.5517 9.29715C17.5364 9.36246 17.5081 9.42403 17.4685 9.47819C17.4289 9.53235 17.3789 9.57799 17.3213 9.61239C17.2637 9.6468 17.1998 9.66927 17.1334 9.67846C17.0669 9.68766 16.9993 9.68339 16.9345 9.66591C16.8698 9.64844 16.8092 9.61811 16.7564 9.57673C16.7036 9.53536 16.6597 9.48378 16.6272 9.42508C16.5948 9.36638 16.5745 9.30174 16.5675 9.23503C16.3881 7.94223 15.8084 6.73803 14.9099 5.7914C14.0113 4.84476 12.8389 4.20319 11.5572 3.95668C10.2755 3.71018 8.94883 3.87112 7.76324 4.41693C6.57765 4.96273 5.59268 5.86601 4.94652 7.00003H7.06152C7.19412 7.00003 7.3213 7.05271 7.41507 7.14647C7.50884 7.24024 7.56152 7.36742 7.56152 7.50003C7.56152 7.63264 7.50884 7.75981 7.41507 7.85358C7.3213 7.94735 7.19412 8.00003 7.06152 8.00003H3.72852C3.59591 8.00003 3.46873 7.94735 3.37496 7.85358C3.28119 7.75981 3.22852 7.63264 3.22852 7.50003V4.16703C3.22852 4.03442 3.28119 3.90724 3.37496 3.81347C3.46873 3.71971 3.59591 3.66703 3.72852 3.66703C3.86112 3.66703 3.9883 3.71971 4.08207 3.81347C4.17584 3.90724 4.22852 4.03442 4.22852 4.16703V6.25303C4.85705 5.24739 5.72268 4.4113 6.74952 3.81803V3.81803ZM3.66052 10.338C3.72559 10.329 3.7918 10.3329 3.85537 10.3495C3.91894 10.366 3.97862 10.395 4.031 10.4346C4.08338 10.4743 4.12743 10.5239 4.16064 10.5806C4.19384 10.6373 4.21555 10.6999 4.22452 10.765C4.4042 12.0575 4.98393 13.2614 5.88241 14.2077C6.78089 15.1541 7.95305 15.7955 9.23449 16.0419C10.5159 16.2884 11.8424 16.1276 13.0278 15.5821C14.2132 15.0365 15.1982 14.1337 15.8445 13H13.7285C13.5959 13 13.4687 12.9473 13.375 12.8536C13.2812 12.7598 13.2285 12.6326 13.2285 12.5C13.2285 12.3674 13.2812 12.2402 13.375 12.1465C13.4687 12.0527 13.5959 12 13.7285 12H17.0625C17.1951 12 17.3223 12.0527 17.4161 12.1465C17.5098 12.2402 17.5625 12.3674 17.5625 12.5V15.833C17.5625 15.9656 17.5098 16.0928 17.4161 16.1866C17.3223 16.2803 17.1951 16.333 17.0625 16.333C16.9299 16.333 16.8027 16.2803 16.709 16.1866C16.6152 16.0928 16.5625 15.9656 16.5625 15.833V13.747C15.7735 15.0095 14.6149 15.9984 13.2442 16.5795C11.8735 17.1605 10.3571 17.3055 8.90118 16.9948C7.44521 16.684 6.12021 15.9325 5.1062 14.8425C4.0922 13.7524 3.43836 12.3766 3.23352 10.902C3.22449 10.837 3.22838 10.7707 3.24496 10.7072C3.26154 10.6436 3.29048 10.5839 3.33014 10.5315C3.36979 10.4792 3.41938 10.4351 3.47607 10.4019C3.53276 10.3687 3.59543 10.347 3.66052 10.338V10.338Z" stroke="white"/>
</g>
<defs>
<clipPath id="clip0_21_7868">
<rect width="20" height="20" fill="white" transform="translate(0.396484)"/>
</clipPath>
</defs>
</svg>
