<svg width="17" height="13" viewBox="0 0 17 13" fill="none" xmlns="http://www.w3.org/2000/svg">
<path fill-rule="evenodd" clip-rule="evenodd" d="M8.33495 12.1664C11.668 12.1664 14.445 10.2224 16.668 6.33337C14.446 2.44337 11.668 0.500366 8.33495 0.500366C5.00195 0.500366 2.22495 2.44337 0.00195312 6.33337C2.22395 10.2224 5.00195 12.1664 8.33495 12.1664ZM10.002 6.33337C10.002 6.55228 9.95883 6.76905 9.87506 6.9713C9.79129 7.17355 9.6685 7.35732 9.5137 7.51211C9.3589 7.66691 9.17514 7.7897 8.97289 7.87347C8.77064 7.95725 8.55387 8.00037 8.33495 8.00037C8.11604 8.00037 7.89927 7.95725 7.69702 7.87347C7.49477 7.7897 7.311 7.66691 7.15621 7.51211C7.00141 7.35732 6.87862 7.17355 6.79485 6.9713C6.71107 6.76905 6.66795 6.55228 6.66795 6.33337C6.66795 5.89125 6.84358 5.46724 7.15621 5.15462C7.46883 4.842 7.89284 4.66637 8.33495 4.66637C8.77707 4.66637 9.20108 4.842 9.5137 5.15462C9.82632 5.46724 10.002 5.89125 10.002 6.33337Z" fill="white"/>
</svg>
