<svg width="21" height="20" viewBox="0 0 21 20" fill="none" xmlns="http://www.w3.org/2000/svg">
<g clip-path="url(#clip0_21_7873)">
<path fill-rule="evenodd" clip-rule="evenodd" d="M17.1465 10C17.1465 11.9891 16.3563 13.8968 14.9498 15.3033C13.5433 16.7098 11.6356 17.5 9.64648 17.5C7.65736 17.5 5.74971 16.7098 4.34318 15.3033C2.93666 13.8968 2.14648 11.9891 2.14648 10C2.14648 8.01088 2.93666 6.10322 4.34318 4.6967C5.74971 3.29018 7.65736 2.5 9.64648 2.5C11.6356 2.5 13.5433 3.29018 14.9498 4.6967C16.3563 6.10322 17.1465 8.01088 17.1465 10ZM9.07648 11.15C9.11648 11.19 9.16648 11.21 9.22648 11.21H10.2165C10.2895 11.21 10.3465 11.19 10.3865 11.15C10.4356 11.0948 10.473 11.0301 10.4965 10.96C10.5035 10.9 10.5195 10.787 10.5465 10.62C10.5868 10.4328 10.6651 10.2558 10.7765 10.1C10.8965 9.933 11.0635 9.737 11.2765 9.51C11.5695 9.19 11.7895 8.907 11.9365 8.66C12.0895 8.413 12.1665 8.123 12.1665 7.79C12.1643 7.48886 12.0777 7.19438 11.9165 6.94C11.7565 6.667 11.4965 6.443 11.1365 6.27C10.7835 6.09 10.3295 6 9.77648 6C9.24348 6 8.77948 6.1 8.38648 6.3C7.99348 6.493 7.68948 6.75 7.47648 7.07C7.26948 7.39 7.15948 7.733 7.14648 8.1C7.14648 8.173 7.16648 8.233 7.20648 8.28C7.25348 8.327 7.30948 8.35 7.37648 8.35H8.24648C8.39348 8.35 8.48948 8.273 8.53648 8.12C8.66948 7.473 9.05948 7.15 9.70648 7.15C9.99348 7.15 10.2365 7.23 10.4365 7.39C10.6435 7.55 10.7335 7.767 10.7065 8.04C10.6896 8.20865 10.6236 8.36862 10.5165 8.5C10.3638 8.69872 10.1967 8.88589 10.0165 9.06C9.72348 9.353 9.49348 9.62 9.32648 9.86C9.15948 10.1 9.05948 10.377 9.02648 10.69C9.01948 10.763 9.01648 10.87 9.01648 11.01C9.01648 11.063 9.03648 11.11 9.07648 11.15ZM9.02648 13.4C9.07348 13.447 9.12948 13.47 9.19648 13.47H10.1865C10.2197 13.4712 10.2528 13.4656 10.2837 13.4536C10.3147 13.4415 10.3428 13.4233 10.3665 13.4C10.3892 13.378 10.4071 13.3515 10.4191 13.3223C10.4312 13.293 10.4371 13.2616 10.4365 13.23V12.34C10.4367 12.3075 10.4296 12.2754 10.4157 12.2459C10.4019 12.2165 10.3817 12.1906 10.3565 12.17C10.3344 12.1473 10.308 12.1294 10.2787 12.1174C10.2495 12.1053 10.2181 12.0994 10.1865 12.1H9.19648C9.16487 12.0994 9.13346 12.1053 9.10422 12.1174C9.07498 12.1294 9.04852 12.1473 9.02648 12.17C9.0038 12.192 8.98588 12.2185 8.97384 12.2477C8.9618 12.277 8.95589 12.3084 8.95648 12.34V13.23C8.95648 13.297 8.97948 13.353 9.02648 13.4Z" fill="white"/>
</g>
<defs>
<clipPath id="clip0_21_7873">
<rect width="20" height="20" fill="white" transform="translate(0.146484)"/>
</clipPath>
</defs>
</svg>
