<svg width="19" height="20" viewBox="0 0 19 20" fill="none" xmlns="http://www.w3.org/2000/svg">
<path d="M15.8206 4.00894C14.7432 3.30651 13.9657 2.18262 13.7231 0.872464C13.6707 0.589395 13.6419 0.298072 13.6419 0H10.2035L10.198 13.78C10.1402 15.3231 8.87013 16.5616 7.31318 16.5616C6.82927 16.5616 6.37362 16.4406 5.97243 16.2295C5.05244 15.7454 4.42285 14.781 4.42285 13.6713C4.42285 12.0775 5.71951 10.7808 7.31318 10.7808C7.61067 10.7808 7.89605 10.8299 8.166 10.9145V7.40424C7.88664 7.3662 7.60279 7.34242 7.31318 7.34242C3.82343 7.34242 0.984436 10.1816 0.984436 13.6713C0.984436 15.8124 2.05419 17.7072 3.68622 18.853C4.7142 19.5747 5.96462 20 7.31318 20C10.8029 20 13.6419 17.161 13.6419 13.6713V6.68367C14.9905 7.65161 16.6427 8.222 18.4256 8.222V4.7836C17.4652 4.7836 16.5707 4.49808 15.8206 4.00894Z" fill="white"/>
</svg>
