<svg width="25" height="24" viewBox="0 0 25 24" fill="none" xmlns="http://www.w3.org/2000/svg">
<g clip-path="url(#clip0_21_6709)">
<path fill-rule="evenodd" clip-rule="evenodd" d="M4.25348 7.232C4.48568 6.99987 4.76132 6.81575 5.06468 6.69015C5.36803 6.56455 5.69316 6.49994 6.02148 6.5H11.0215C11.1541 6.5 11.2813 6.55268 11.375 6.64645C11.4688 6.74021 11.5215 6.86739 11.5215 7C11.5215 7.13261 11.4688 7.25979 11.375 7.35355C11.2813 7.44732 11.1541 7.5 11.0215 7.5H6.02148C5.62366 7.5 5.24213 7.65804 4.96082 7.93934C4.67952 8.22064 4.52148 8.60218 4.52148 9V18C4.52148 18.3978 4.67952 18.7794 4.96082 19.0607C5.24213 19.342 5.62366 19.5 6.02148 19.5H15.0215C15.4193 19.5 15.8008 19.342 16.0821 19.0607C16.3634 18.7794 16.5215 18.3978 16.5215 18V13C16.5215 12.8674 16.5742 12.7402 16.6679 12.6464C16.7617 12.5527 16.8889 12.5 17.0215 12.5C17.1541 12.5 17.2813 12.5527 17.375 12.6464C17.4688 12.7402 17.5215 12.8674 17.5215 13V18C17.5215 18.3283 17.4568 18.6534 17.3312 18.9567C17.2055 19.26 17.0214 19.5356 16.7893 19.7678C16.5571 19.9999 16.2815 20.1841 15.9782 20.3097C15.6749 20.4353 15.3498 20.5 15.0215 20.5H6.02148C5.69318 20.5 5.36809 20.4353 5.06478 20.3097C4.76146 20.1841 4.48586 19.9999 4.25372 19.7678C4.02157 19.5356 3.83742 19.26 3.71179 18.9567C3.58615 18.6534 3.52148 18.3283 3.52148 18V9C3.52142 8.67167 3.58604 8.34655 3.71163 8.04319C3.83723 7.73984 4.02135 7.46419 4.25348 7.232Z" fill="white"/>
<path fill-rule="evenodd" clip-rule="evenodd" d="M20.3761 3.64604C20.4227 3.69248 20.4596 3.74766 20.4848 3.80841C20.51 3.86915 20.523 3.93427 20.523 4.00004C20.523 4.06581 20.51 4.13093 20.4848 4.19167C20.4596 4.25242 20.4227 4.30759 20.3761 4.35404L10.3761 14.354C10.2822 14.4479 10.1549 14.5007 10.0221 14.5007C9.88934 14.5007 9.762 14.4479 9.66812 14.354C9.57423 14.2602 9.52148 14.1328 9.52148 14C9.52148 13.8673 9.57423 13.7399 9.66812 13.646L19.6681 3.64604C19.7146 3.59948 19.7697 3.56253 19.8305 3.53733C19.8912 3.51212 19.9563 3.49915 20.0221 3.49915C20.0879 3.49915 20.153 3.51212 20.2137 3.53733C20.2745 3.56253 20.3297 3.59948 20.3761 3.64604Z" fill="white"/>
<path fill-rule="evenodd" clip-rule="evenodd" d="M14.5215 4C14.5215 3.86739 14.5742 3.74021 14.6679 3.64645C14.7617 3.55268 14.8889 3.5 15.0215 3.5H20.0215C20.1541 3.5 20.2813 3.55268 20.375 3.64645C20.4688 3.74021 20.5215 3.86739 20.5215 4V9C20.5215 9.13261 20.4688 9.25979 20.375 9.35355C20.2813 9.44732 20.1541 9.5 20.0215 9.5C19.8889 9.5 19.7617 9.44732 19.6679 9.35355C19.5742 9.25979 19.5215 9.13261 19.5215 9V4.5H15.0215C14.8889 4.5 14.7617 4.44732 14.6679 4.35355C14.5742 4.25979 14.5215 4.13261 14.5215 4Z" fill="white"/>
</g>
<defs>
<clipPath id="clip0_21_6709">
<rect width="24" height="24" fill="white" transform="translate(0.0214844)"/>
</clipPath>
</defs>
</svg>
