<svg width="19" height="18" viewBox="0 0 19 18" fill="none" xmlns="http://www.w3.org/2000/svg">
<path d="M18.705 1.32353V16.6765C18.705 17.0275 18.5656 17.3641 18.3174 17.6123C18.0692 17.8606 17.7325 18 17.3815 18H2.02855C1.67752 18 1.34088 17.8606 1.09267 17.6123C0.84446 17.3641 0.705017 17.0275 0.705017 16.6765L0.705017 1.32353C0.705017 0.972508 0.84446 0.635863 1.09267 0.387653C1.34088 0.139443 1.67752 0 2.02855 0L17.3815 0C17.7325 0 18.0692 0.139443 18.3174 0.387653C18.5656 0.635863 18.705 0.972508 18.705 1.32353ZM5.99914 6.88235H3.35208V15.3529H5.99914V6.88235ZM6.23737 3.97059C6.23877 3.77036 6.20071 3.57182 6.12537 3.3863C6.05003 3.20078 5.93889 3.03191 5.79829 2.88935C5.65769 2.74678 5.49039 2.6333 5.30593 2.5554C5.12148 2.47749 4.92348 2.43668 4.72325 2.43529H4.67561C4.26842 2.43529 3.87791 2.59705 3.58999 2.88497C3.30207 3.17289 3.14031 3.5634 3.14031 3.97059C3.14031 4.37777 3.30207 4.76828 3.58999 5.05621C3.87791 5.34413 4.26842 5.50588 4.67561 5.50588C4.87585 5.51081 5.0751 5.47623 5.26197 5.40413C5.44885 5.33202 5.61968 5.2238 5.76472 5.08565C5.90975 4.94749 6.02615 4.78212 6.10725 4.59897C6.18835 4.41582 6.23256 4.21848 6.23737 4.01824V3.97059ZM16.058 10.2071C16.058 7.66059 14.438 6.67059 12.8285 6.67059C12.3016 6.6442 11.7769 6.75644 11.3069 6.9961C10.8369 7.23577 10.4379 7.59448 10.1497 8.03647H10.0756V6.88235H7.58737V15.3529H10.2344V10.8476C10.1962 10.3862 10.3415 9.92835 10.6389 9.57347C10.9363 9.2186 11.3617 8.9954 11.8227 8.95235H11.9233C12.765 8.95235 13.3897 9.48177 13.3897 10.8159V15.3529H16.0368L16.058 10.2071Z" fill="white"/>
</svg>
