<svg width="24" height="24" viewBox="0 0 24 24" fill="none" xmlns="http://www.w3.org/2000/svg">
<g clip-path="url(#clip0_140_608)">
<path d="M13.5 6.375V0H4.125C3.50156 0 3 0.501562 3 1.125V22.875C3 23.4984 3.50156 24 4.125 24H19.875C20.4984 24 21 23.4984 21 22.875V7.5H14.625C14.0063 7.5 13.5 6.99375 13.5 6.375ZM16.1766 12H17.2969C17.6578 12 17.925 12.3328 17.8453 12.6891L16.0641 20.5641C16.0078 20.8219 15.7781 21 15.5156 21H13.7344C13.4766 21 13.2516 20.8219 13.1906 20.5734C11.9812 15.7219 12.2156 16.7672 11.9906 15.3937H11.9672C11.9156 16.0641 11.8547 16.2094 10.7672 20.5734C10.7062 20.8219 10.4813 21 10.2234 21H8.48438C8.22188 21 7.99219 20.8172 7.93594 20.5594L6.16406 12.6844C6.08437 12.3328 6.35156 12 6.7125 12H7.86094C8.12812 12 8.3625 12.1875 8.41406 12.4547C9.14531 16.1109 9.35625 17.5875 9.39844 18.1828C9.47344 17.7047 9.74062 16.65 10.7766 12.4313C10.8375 12.1781 11.0625 12.0047 11.325 12.0047H12.6891C12.9516 12.0047 13.1766 12.1828 13.2375 12.4359C14.3625 17.1422 14.5875 18.2484 14.625 18.5016C14.6156 17.9766 14.5031 17.6672 15.6375 12.4453C15.6844 12.1828 15.9141 12 16.1766 12ZM21 5.71406V6H15V0H15.2859C15.5859 0 15.8719 0.117188 16.0828 0.328125L20.6719 4.92188C20.8828 5.13281 21 5.41875 21 5.71406Z" fill="white"/>
</g>
<defs>
<clipPath id="clip0_140_608">
<rect width="24" height="24" fill="white"/>
</clipPath>
</defs>
</svg>
